<?xml version="1.0" encoding="iso-8859-1"?>
<!-- Generator: Adobe Illustrator 19.0.0, SVG Export Plug-In . SVG Version: 6.00 Build 0)  -->
<svg version="1.1" id="Layer_1" xmlns="http://www.w3.org/2000/svg" xmlns:xlink="http://www.w3.org/1999/xlink" x="0px" y="0px"
	 viewBox="0 0 508 508" style="enable-background:new 0 0 508 508;" xml:space="preserve">
<circle style="fill:#324A5E;" cx="254" cy="254" r="254"/>
<path style="fill:#FFFFFF;" d="M338.2,418.6V375c0-5,4.1-9.1,9.1-9.1h43.6V98.5c0-5-4.1-9.1-9.1-9.1H126.2c-5,0-9.1,4.1-9.1,9.1v311
	c0,5,4.1,9.1,9.1,9.1H338.2z"/>
<path style="fill:#E6E9EE;" d="M338.2,418.6l52.7-52.7h-43.6c-5,0-9.1,4.1-9.1,9.1V418.6z"/>
<path style="fill:#84DBFF;" d="M171.1,204.5v-7.8c-9.8-1-18.5-4.9-26.3-11.7l7.8-9.3c6,5.2,12.2,8.3,18.5,9.3v-20.7
	c-8.1-1.9-13.9-4.5-17.7-7.6c-3.7-3.1-5.6-7.8-5.6-13.9c0-6.2,2.2-11.2,6.5-15.1c4.3-3.9,9.9-6.1,16.8-6.4V116h6.8v5.5
	c7.8,0.6,15.2,3.2,22.2,8l-7,9.8c-4.7-3.3-9.8-5.4-15.3-6.2v20.1h0.3c8.2,1.9,14.2,4.5,18.1,7.8c3.8,3.3,5.8,8,5.8,14.3
	c0,6.2-2.2,11.3-6.6,15.2c-4.4,3.9-10.3,6.1-17.5,6.4v7.7h-6.8V204.5z M163.5,135.5c-1.8,1.6-2.7,3.6-2.7,6s0.7,4.3,2.1,5.7
	c1.4,1.4,4.1,2.7,8.1,4v-18.5C167.9,132.9,165.4,133.9,163.5,135.5z M186,182.4c2-1.6,3-3.7,3-6.2s-0.8-4.5-2.4-5.9
	c-1.6-1.5-4.5-2.8-8.8-4.1v19.2C181.3,185,184.1,184,186,182.4z"/>
<g>
	<rect x="220.4" y="115.9" style="fill:#E6E9EE;" width="153.7" height="12.5"/>
	<rect x="220.4" y="152.4" style="fill:#E6E9EE;" width="153.7" height="12.5"/>
	<rect x="220.4" y="189" style="fill:#E6E9EE;" width="153.7" height="12.5"/>
	<rect x="134" y="225.5" style="fill:#E6E9EE;" width="240.1" height="12.5"/>
	<rect x="134" y="262" style="fill:#E6E9EE;" width="240.1" height="12.5"/>
	<rect x="134" y="298.6" style="fill:#E6E9EE;" width="240.1" height="12.5"/>
	<rect x="134" y="335.1" style="fill:#E6E9EE;" width="240.1" height="12.5"/>
</g>
<g>
</g>
<g>
</g>
<g>
</g>
<g>
</g>
<g>
</g>
<g>
</g>
<g>
</g>
<g>
</g>
<g>
</g>
<g>
</g>
<g>
</g>
<g>
</g>
<g>
</g>
<g>
</g>
<g>
</g>
</svg>
